<svg width="720" height="220" viewBox="0 0 720 220" fill="none" xmlns="http://www.w3.org/2000/svg" role="img" aria-labelledby="title desc">
  <title id="title">AI Fitness Coach logo</title>
  <desc id="desc">Green flex-arm fitness logo with a hexagon AI mark.</desc>
  <defs>
    <linearGradient id="brandGreen" x1="92" y1="36" x2="628" y2="196" gradientUnits="userSpaceOnUse">
      <stop stop-color="#86EFAC"/>
      <stop offset="0.5" stop-color="#22C55E"/>
      <stop offset="1" stop-color="#15803D"/>
    </linearGradient>
    <filter id="glow" x="20" y="0" width="680" height="220" color-interpolation-filters="sRGB">
      <feGaussianBlur stdDeviation="5" result="blur"/>
      <feColorMatrix in="blur" type="matrix" values="0 0 0 0 0.13 0 0 0 0 0.77 0 0 0 0 0.37 0 0 0 0.38 0"/>
      <feBlend in="SourceGraphic"/>
    </filter>
  </defs>
  <rect width="720" height="220" rx="34" fill="#061008"/>
  <g filter="url(#glow)" stroke="url(#brandGreen)" stroke-width="13" stroke-linecap="round" stroke-linejoin="round">
    <path d="M248 132c-28 20-64 23-94 7-21-11-37-29-45-51"/>
    <path d="M109 88c-11 7-23 6-34-3 15-8 25-20 31-37 7 12 8 25 3 40Z"/>
    <path d="M155 139c-29 4-54 0-75-14 17-15 30-34 39-58"/>
    <path d="M472 132c28 20 64 23 94 7 21-11 37-29 45-51"/>
    <path d="M611 88c11 7 23 6 34-3-15-8-25-20-31-37-7 12-8 25-3 40Z"/>
    <path d="M565 139c29 4 54 0 75-14-17-15-30-34-39-58"/>
  </g>
  <path d="M360 28 456 83v110l-96 55-96-55V83l96-55Z" fill="#08170D" stroke="url(#brandGreen)" stroke-width="13" stroke-linejoin="round"/>
  <path d="M310 122h100" stroke="#86EFAC" stroke-width="7" stroke-linecap="round"/>
  <text x="360" y="114" text-anchor="middle" font-family="Arial Black, Arial, sans-serif" font-size="58" font-weight="900" fill="#EFFFF3">AI</text>
  <text x="360" y="158" text-anchor="middle" font-family="Arial, sans-serif" font-size="28" font-weight="900" letter-spacing="4" fill="#22C55E">FIT</text>
</svg>
